<?xml version="1.0" standalone="no"?><!DOCTYPE svg PUBLIC "-//W3C//DTD SVG 1.1//EN" "http://www.w3.org/Graphics/SVG/1.1/DTD/svg11.dtd"><svg t="1580740083730" class="icon" viewBox="0 0 1024 1024" version="1.1" xmlns="http://www.w3.org/2000/svg" p-id="3409" xmlns:xlink="http://www.w3.org/1999/xlink" width="48" height="48"><defs><style type="text/css"></style></defs><path d="M316.84799999999984 981.0949999999998c-0.015-1.0408340855860843e-17-0.031-2.0816681711721685e-17-0.048-3.8163916471489756e-17-14.022-3.552713678800501e-15-26.714-5.693000000000014-35.89299999999999-14.892000000000012-19.87099999999998-19.871000000000013-19.87099999999996-52.003-0.0009999999999550369-71.87300000000002l391.94800000000026-391.9499999999998-397.63299999999975-397.6360000000003c-19.872999999999987-19.866000000000014-19.872999999999966-51.99900000000001 4.263256414560601e-14-71.872 19.86900000000001-19.872999999999983 51.99900000000001-19.872999999999966 71.872 4.263256414560601e-14l433.5709999999997 433.57400000000024c19.872999999999987 19.87300000000001 19.872999999999966 51.99900000000001-4.263256414560601e-14 71.872l-427.87800000000016 427.8809999999997c-9.181000000000004 9.200999999999992-21.87700000000001 14.895999999999983-35.902000000000015 14.895999999999987-0.012999999999999998-9.540979117872439e-18-0.025-1.9081958235744878e-17-0.037-2.0816681711721685e-17z" p-id="3410"></path></svg>